<?xml version="1.0" encoding="UTF-8" standalone="no"?>
<!DOCTYPE svg PUBLIC "-//W3C//DTD SVG 1.1//EN"
 "http://www.w3.org/Graphics/SVG/1.1/DTD/svg11.dtd">
<!-- Generated by graphviz version 2.38.0 (20140413.2041)
 -->
<!-- Title: g Pages: 1 -->
<svg width="1259pt" height="836pt"
 viewBox="0.00 0.00 1259.19 836.00" xmlns="http://www.w3.org/2000/svg" xmlns:xlink="http://www.w3.org/1999/xlink">
<g id="graph0" class="graph" transform="scale(1 1) rotate(0) translate(4 832)">
<title>g</title>
<polygon fill="white" stroke="none" points="-4,4 -4,-832 1255.19,-832 1255.19,4 -4,4"/>
<!-- TailLight -->
<g id="node1" class="node"><title>TailLight</title>
<ellipse fill="#ffaaaa" stroke="black" cx="57.1949" cy="-810" rx="42.7926" ry="18"/>
<text text-anchor="middle" x="57.1949" y="-806.3" font-family="Times New Roman,serif" font-size="14.00">TailLight</text>
</g>
<!-- HeadLight -->
<g id="node2" class="node"><title>HeadLight</title>
<ellipse fill="#ffaaaa" stroke="black" cx="57.1949" cy="-738" rx="48.1917" ry="18"/>
<text text-anchor="middle" x="57.1949" y="-734.3" font-family="Times New Roman,serif" font-size="14.00">HeadLight</text>
</g>
<!-- HeadLight&#45;&gt;TailLight -->
<g id="edge11" class="edge"><title>HeadLight&#45;&gt;TailLight</title>
<path fill="none" stroke="black" d="M57.1949,-756.303C57.1949,-764.017 57.1949,-773.288 57.1949,-781.888"/>
<polygon fill="black" stroke="black" points="53.695,-781.896 57.1949,-791.896 60.695,-781.896 53.695,-781.896"/>
</g>
<!-- BrakeSensor -->
<g id="node3" class="node"><title>BrakeSensor</title>
<ellipse fill="#ffaaaa" stroke="black" cx="57.1949" cy="-666" rx="57.3905" ry="18"/>
<text text-anchor="middle" x="57.1949" y="-662.3" font-family="Times New Roman,serif" font-size="14.00">BrakeSensor</text>
</g>
<!-- BrakeSensor&#45;&gt;HeadLight -->
<g id="edge10" class="edge"><title>BrakeSensor&#45;&gt;HeadLight</title>
<path fill="none" stroke="black" d="M57.1949,-684.303C57.1949,-692.017 57.1949,-701.288 57.1949,-709.888"/>
<polygon fill="black" stroke="black" points="53.695,-709.896 57.1949,-719.896 60.695,-709.896 53.695,-709.896"/>
</g>
<!-- TurnSignals -->
<g id="node4" class="node"><title>TurnSignals</title>
<ellipse fill="#ffaaaa" stroke="black" cx="57.1949" cy="-594" rx="53.8905" ry="18"/>
<text text-anchor="middle" x="57.1949" y="-590.3" font-family="Times New Roman,serif" font-size="14.00">TurnSignals</text>
</g>
<!-- TurnSignals&#45;&gt;BrakeSensor -->
<g id="edge9" class="edge"><title>TurnSignals&#45;&gt;BrakeSensor</title>
<path fill="none" stroke="black" d="M57.1949,-612.303C57.1949,-620.017 57.1949,-629.288 57.1949,-637.888"/>
<polygon fill="black" stroke="black" points="53.695,-637.896 57.1949,-647.896 60.695,-637.896 53.695,-637.896"/>
</g>
<!-- Horn -->
<g id="node5" class="node"><title>Horn</title>
<ellipse fill="#ffaaaa" stroke="black" cx="57.1949" cy="-522" rx="29.4969" ry="18"/>
<text text-anchor="middle" x="57.1949" y="-518.3" font-family="Times New Roman,serif" font-size="14.00">Horn</text>
</g>
<!-- Horn&#45;&gt;TurnSignals -->
<g id="edge8" class="edge"><title>Horn&#45;&gt;TurnSignals</title>
<path fill="none" stroke="black" d="M57.1949,-540.303C57.1949,-548.017 57.1949,-557.288 57.1949,-565.888"/>
<polygon fill="black" stroke="black" points="53.695,-565.896 57.1949,-575.896 60.695,-565.896 53.695,-565.896"/>
</g>
<!-- Modes -->
<g id="node6" class="node"><title>Modes</title>
<ellipse fill="#ffaaaa" stroke="black" cx="57.1949" cy="-450" rx="36.2938" ry="18"/>
<text text-anchor="middle" x="57.1949" y="-446.3" font-family="Times New Roman,serif" font-size="14.00">Modes</text>
</g>
<!-- Modes&#45;&gt;Horn -->
<g id="edge7" class="edge"><title>Modes&#45;&gt;Horn</title>
<path fill="none" stroke="black" d="M57.1949,-468.303C57.1949,-476.017 57.1949,-485.288 57.1949,-493.888"/>
<polygon fill="black" stroke="black" points="53.695,-493.896 57.1949,-503.896 60.695,-493.896 53.695,-493.896"/>
</g>
<!-- Police -->
<g id="node7" class="node"><title>Police</title>
<ellipse fill="#ffaaaa" stroke="black" cx="57.1949" cy="-378" rx="33.2948" ry="18"/>
<text text-anchor="middle" x="57.1949" y="-374.3" font-family="Times New Roman,serif" font-size="14.00">Police</text>
</g>
<!-- Police&#45;&gt;Modes -->
<g id="edge6" class="edge"><title>Police&#45;&gt;Modes</title>
<path fill="none" stroke="black" d="M57.1949,-396.303C57.1949,-404.017 57.1949,-413.288 57.1949,-421.888"/>
<polygon fill="black" stroke="black" points="53.695,-421.896 57.1949,-431.896 60.695,-421.896 53.695,-421.896"/>
</g>
<!-- Display -->
<g id="node8" class="node"><title>Display</title>
<ellipse fill="#ffaaaa" stroke="black" cx="57.1949" cy="-306" rx="38.1938" ry="18"/>
<text text-anchor="middle" x="57.1949" y="-302.3" font-family="Times New Roman,serif" font-size="14.00">Display</text>
</g>
<!-- Display&#45;&gt;Police -->
<g id="edge5" class="edge"><title>Display&#45;&gt;Police</title>
<path fill="none" stroke="black" d="M57.1949,-324.303C57.1949,-332.017 57.1949,-341.288 57.1949,-349.888"/>
<polygon fill="black" stroke="black" points="53.695,-349.896 57.1949,-359.896 60.695,-349.896 53.695,-349.896"/>
</g>
<!-- Speed -->
<g id="node9" class="node"><title>Speed</title>
<ellipse fill="#ffaaaa" stroke="black" cx="57.1949" cy="-234" rx="33.5952" ry="18"/>
<text text-anchor="middle" x="57.1949" y="-230.3" font-family="Times New Roman,serif" font-size="14.00">Speed</text>
</g>
<!-- Speed&#45;&gt;Display -->
<g id="edge4" class="edge"><title>Speed&#45;&gt;Display</title>
<path fill="none" stroke="black" d="M57.1949,-252.303C57.1949,-260.017 57.1949,-269.288 57.1949,-277.888"/>
<polygon fill="black" stroke="black" points="53.695,-277.896 57.1949,-287.896 60.695,-277.896 53.695,-277.896"/>
</g>
<!-- Luminosity -->
<g id="node10" class="node"><title>Luminosity</title>
<ellipse fill="#ffaaaa" stroke="black" cx="57.1949" cy="-162" rx="51.1914" ry="18"/>
<text text-anchor="middle" x="57.1949" y="-158.3" font-family="Times New Roman,serif" font-size="14.00">Luminosity</text>
</g>
<!-- Luminosity&#45;&gt;Speed -->
<g id="edge3" class="edge"><title>Luminosity&#45;&gt;Speed</title>
<path fill="none" stroke="black" d="M57.1949,-180.303C57.1949,-188.017 57.1949,-197.288 57.1949,-205.888"/>
<polygon fill="black" stroke="black" points="53.695,-205.896 57.1949,-215.896 60.695,-205.896 53.695,-205.896"/>
</g>
<!-- Beep -->
<g id="node11" class="node"><title>Beep</title>
<ellipse fill="#ffaaaa" stroke="black" cx="57.1949" cy="-90" rx="29.4969" ry="18"/>
<text text-anchor="middle" x="57.1949" y="-86.3" font-family="Times New Roman,serif" font-size="14.00">Beep</text>
</g>
<!-- Beep&#45;&gt;Luminosity -->
<g id="edge2" class="edge"><title>Beep&#45;&gt;Luminosity</title>
<path fill="none" stroke="black" d="M57.1949,-108.303C57.1949,-116.017 57.1949,-125.288 57.1949,-133.888"/>
<polygon fill="black" stroke="black" points="53.695,-133.896 57.1949,-143.896 60.695,-133.896 53.695,-133.896"/>
</g>
<!-- StatusLed -->
<g id="node12" class="node"><title>StatusLed</title>
<ellipse fill="#ffaaaa" stroke="black" cx="57.1949" cy="-18" rx="47.3916" ry="18"/>
<text text-anchor="middle" x="57.1949" y="-14.3" font-family="Times New Roman,serif" font-size="14.00">StatusLed</text>
</g>
<!-- StatusLed&#45;&gt;Beep -->
<g id="edge1" class="edge"><title>StatusLed&#45;&gt;Beep</title>
<path fill="none" stroke="black" d="M57.1949,-36.3034C57.1949,-44.0173 57.1949,-53.2875 57.1949,-61.8876"/>
<polygon fill="black" stroke="black" points="53.695,-61.8956 57.1949,-71.8957 60.695,-61.8957 53.695,-61.8956"/>
</g>
<!-- interrupts -->
<g id="node13" class="node"><title>interrupts</title>
<polygon fill="#88ee88" stroke="black" points="460.695,-396 391.695,-396 391.695,-360 460.695,-360 460.695,-396"/>
<text text-anchor="middle" x="426.195" y="-374.3" font-family="Times New Roman,serif" font-size="14.00">interrupts</text>
</g>
<!-- p2 -->
<g id="node21" class="node"><title>p2</title>
<polygon fill="#aaaacc" stroke="black" points="453.195,-468 399.195,-468 399.195,-432 453.195,-432 453.195,-468"/>
<text text-anchor="middle" x="426.195" y="-446.3" font-family="Times New Roman,serif" font-size="14.00">p2</text>
</g>
<!-- interrupts&#45;&gt;p2 -->
<g id="edge17" class="edge"><title>interrupts&#45;&gt;p2</title>
<path fill="none" stroke="black" d="M426.195,-396.303C426.195,-404.017 426.195,-413.288 426.195,-421.888"/>
<polygon fill="black" stroke="black" points="422.695,-421.896 426.195,-431.896 429.695,-421.896 422.695,-421.896"/>
</g>
<!-- p3 -->
<g id="node22" class="node"><title>p3</title>
<polygon fill="#aaaacc" stroke="black" points="338.195,-468 284.195,-468 284.195,-432 338.195,-432 338.195,-468"/>
<text text-anchor="middle" x="311.195" y="-446.3" font-family="Times New Roman,serif" font-size="14.00">p3</text>
</g>
<!-- interrupts&#45;&gt;p3 -->
<g id="edge18" class="edge"><title>interrupts&#45;&gt;p3</title>
<path fill="none" stroke="black" d="M398.063,-396.124C382.69,-405.481 363.489,-417.169 347.051,-427.175"/>
<polygon fill="black" stroke="black" points="344.967,-424.346 338.245,-432.535 348.607,-430.325 344.967,-424.346"/>
</g>
<!-- i2c -->
<g id="node14" class="node"><title>i2c</title>
<polygon fill="#88ee88" stroke="black" points="565.195,-324 511.195,-324 511.195,-288 565.195,-288 565.195,-324"/>
<text text-anchor="middle" x="538.195" y="-302.3" font-family="Times New Roman,serif" font-size="14.00">i2c</text>
</g>
<!-- i2c&#45;&gt;interrupts -->
<g id="edge16" class="edge"><title>i2c&#45;&gt;interrupts</title>
<path fill="none" stroke="black" d="M511.083,-323.945C496.334,-333.163 477.905,-344.681 461.989,-354.629"/>
<polygon fill="black" stroke="black" points="460.071,-351.7 453.446,-359.968 463.781,-357.636 460.071,-351.7"/>
</g>
<!-- a4 -->
<g id="node37" class="node"><title>a4</title>
<polygon fill="#aaaacc" stroke="black" points="592.195,-396 538.195,-396 538.195,-360 592.195,-360 592.195,-396"/>
<text text-anchor="middle" x="565.195" y="-374.3" font-family="Times New Roman,serif" font-size="14.00">a4</text>
</g>
<!-- i2c&#45;&gt;a4 -->
<g id="edge19" class="edge"><title>i2c&#45;&gt;a4</title>
<path fill="none" stroke="black" d="M544.869,-324.303C547.91,-332.187 551.578,-341.696 554.956,-350.454"/>
<polygon fill="black" stroke="black" points="551.733,-351.825 558.598,-359.896 558.264,-349.306 551.733,-351.825"/>
</g>
<!-- a5 -->
<g id="node38" class="node"><title>a5</title>
<polygon fill="#aaaacc" stroke="black" points="818.195,-396 764.195,-396 764.195,-360 818.195,-360 818.195,-396"/>
<text text-anchor="middle" x="791.195" y="-374.3" font-family="Times New Roman,serif" font-size="14.00">a5</text>
</g>
<!-- i2c&#45;&gt;a5 -->
<g id="edge20" class="edge"><title>i2c&#45;&gt;a5</title>
<path fill="none" stroke="black" d="M565.27,-314.491C610.803,-327.089 702.761,-352.532 754.208,-366.767"/>
<polygon fill="black" stroke="black" points="753.361,-370.163 763.932,-369.457 755.227,-363.417 753.361,-370.163"/>
</g>
<!-- pwm -->
<g id="node15" class="node"><title>pwm</title>
<polygon fill="#88ee88" stroke="black" points="385.195,-252 331.195,-252 331.195,-216 385.195,-216 385.195,-252"/>
<text text-anchor="middle" x="358.195" y="-230.3" font-family="Times New Roman,serif" font-size="14.00">pwm</text>
</g>
<!-- pwm&#45;&gt;i2c -->
<g id="edge15" class="edge"><title>pwm&#45;&gt;i2c</title>
<path fill="none" stroke="black" d="M385.276,-244.163C412.549,-253.565 455.967,-269.006 501.702,-287.963"/>
<polygon fill="black" stroke="black" points="500.608,-291.299 511.184,-291.931 503.31,-284.842 500.608,-291.299"/>
</g>
<!-- pwm&#45;&gt;p3 -->
<g id="edge21" class="edge"><title>pwm&#45;&gt;p3</title>
<path fill="none" stroke="black" d="M331.118,-246.992C314.867,-255.788 295.58,-269.439 286.195,-288 264.218,-331.466 283.115,-389.297 297.844,-422.506"/>
<polygon fill="black" stroke="black" points="294.852,-424.375 302.231,-431.978 301.204,-421.433 294.852,-424.375"/>
</g>
<!-- p5 -->
<g id="node24" class="node"><title>p5</title>
<polygon fill="#aaaacc" stroke="black" points="349.195,-324 295.195,-324 295.195,-288 349.195,-288 349.195,-324"/>
<text text-anchor="middle" x="322.195" y="-302.3" font-family="Times New Roman,serif" font-size="14.00">p5</text>
</g>
<!-- pwm&#45;&gt;p5 -->
<g id="edge22" class="edge"><title>pwm&#45;&gt;p5</title>
<path fill="none" stroke="black" d="M349.296,-252.303C345.198,-260.272 340.246,-269.9 335.702,-278.736"/>
<polygon fill="black" stroke="black" points="332.452,-277.402 330.991,-287.896 338.677,-280.604 332.452,-277.402"/>
</g>
<!-- p6 -->
<g id="node25" class="node"><title>p6</title>
<polygon fill="#aaaacc" stroke="black" points="421.195,-324 367.195,-324 367.195,-288 421.195,-288 421.195,-324"/>
<text text-anchor="middle" x="394.195" y="-302.3" font-family="Times New Roman,serif" font-size="14.00">p6</text>
</g>
<!-- pwm&#45;&gt;p6 -->
<g id="edge23" class="edge"><title>pwm&#45;&gt;p6</title>
<path fill="none" stroke="black" d="M367.094,-252.303C371.192,-260.272 376.144,-269.9 380.688,-278.736"/>
<polygon fill="black" stroke="black" points="377.712,-280.604 385.398,-287.896 383.937,-277.402 377.712,-280.604"/>
</g>
<!-- p9 -->
<g id="node28" class="node"><title>p9</title>
<polygon fill="#aaaacc" stroke="black" points="493.195,-324 439.195,-324 439.195,-288 493.195,-288 493.195,-324"/>
<text text-anchor="middle" x="466.195" y="-302.3" font-family="Times New Roman,serif" font-size="14.00">p9</text>
</g>
<!-- pwm&#45;&gt;p9 -->
<g id="edge24" class="edge"><title>pwm&#45;&gt;p9</title>
<path fill="none" stroke="black" d="M384.615,-252.124C398.605,-261.192 415.971,-272.448 431.081,-282.241"/>
<polygon fill="black" stroke="black" points="429.378,-285.308 439.674,-287.81 433.186,-279.434 429.378,-285.308"/>
</g>
<!-- p10 -->
<g id="node29" class="node"><title>p10</title>
<polygon fill="#aaaacc" stroke="black" points="167.195,-324 113.195,-324 113.195,-288 167.195,-288 167.195,-324"/>
<text text-anchor="middle" x="140.195" y="-302.3" font-family="Times New Roman,serif" font-size="14.00">p10</text>
</g>
<!-- pwm&#45;&gt;p10 -->
<g id="edge25" class="edge"><title>pwm&#45;&gt;p10</title>
<path fill="none" stroke="black" d="M330.929,-241.506C296.777,-249.963 236.427,-265.919 177.038,-287.962"/>
<polygon fill="black" stroke="black" points="175.641,-284.748 167.519,-291.551 178.111,-291.298 175.641,-284.748"/>
</g>
<!-- p11 -->
<g id="node30" class="node"><title>p11</title>
<polygon fill="#aaaacc" stroke="black" points="239.195,-324 185.195,-324 185.195,-288 239.195,-288 239.195,-324"/>
<text text-anchor="middle" x="212.195" y="-302.3" font-family="Times New Roman,serif" font-size="14.00">p11</text>
</g>
<!-- pwm&#45;&gt;p11 -->
<g id="edge26" class="edge"><title>pwm&#45;&gt;p11</title>
<path fill="none" stroke="black" d="M331.076,-248.002C307.867,-259.13 274.253,-275.246 248.686,-287.504"/>
<polygon fill="black" stroke="black" points="247.168,-284.35 239.664,-291.83 250.195,-290.662 247.168,-284.35"/>
</g>
<!-- analogIn -->
<g id="node16" class="node"><title>analogIn</title>
<polygon fill="#88ee88" stroke="black" points="752.195,-180 688.195,-180 688.195,-144 752.195,-144 752.195,-180"/>
<text text-anchor="middle" x="720.195" y="-158.3" font-family="Times New Roman,serif" font-size="14.00">analogIn</text>
</g>
<!-- analogIn&#45;&gt;pwm -->
<g id="edge14" class="edge"><title>analogIn&#45;&gt;pwm</title>
<path fill="none" stroke="black" d="M688.07,-169.212C620.945,-182.192 466.172,-212.121 395.098,-225.864"/>
<polygon fill="black" stroke="black" points="394.393,-222.435 385.24,-227.77 395.722,-229.308 394.393,-222.435"/>
</g>
<!-- a0 -->
<g id="node33" class="node"><title>a0</title>
<polygon fill="#aaaacc" stroke="black" points="675.195,-252 621.195,-252 621.195,-216 675.195,-216 675.195,-252"/>
<text text-anchor="middle" x="648.195" y="-230.3" font-family="Times New Roman,serif" font-size="14.00">a0</text>
</g>
<!-- analogIn&#45;&gt;a0 -->
<g id="edge27" class="edge"><title>analogIn&#45;&gt;a0</title>
<path fill="none" stroke="black" d="M702.397,-180.303C693.591,-188.865 682.813,-199.344 673.194,-208.696"/>
<polygon fill="black" stroke="black" points="670.518,-206.415 665.788,-215.896 675.398,-211.434 670.518,-206.415"/>
</g>
<!-- a1 -->
<g id="node34" class="node"><title>a1</title>
<polygon fill="#aaaacc" stroke="black" points="747.195,-252 693.195,-252 693.195,-216 747.195,-216 747.195,-252"/>
<text text-anchor="middle" x="720.195" y="-230.3" font-family="Times New Roman,serif" font-size="14.00">a1</text>
</g>
<!-- analogIn&#45;&gt;a1 -->
<g id="edge28" class="edge"><title>analogIn&#45;&gt;a1</title>
<path fill="none" stroke="black" d="M720.195,-180.303C720.195,-188.017 720.195,-197.288 720.195,-205.888"/>
<polygon fill="black" stroke="black" points="716.695,-205.896 720.195,-215.896 723.695,-205.896 716.695,-205.896"/>
</g>
<!-- a2 -->
<g id="node35" class="node"><title>a2</title>
<polygon fill="#aaaacc" stroke="black" points="819.195,-252 765.195,-252 765.195,-216 819.195,-216 819.195,-252"/>
<text text-anchor="middle" x="792.195" y="-230.3" font-family="Times New Roman,serif" font-size="14.00">a2</text>
</g>
<!-- analogIn&#45;&gt;a2 -->
<g id="edge29" class="edge"><title>analogIn&#45;&gt;a2</title>
<path fill="none" stroke="black" d="M737.993,-180.303C746.799,-188.865 757.577,-199.344 767.196,-208.696"/>
<polygon fill="black" stroke="black" points="764.992,-211.434 774.602,-215.896 769.872,-206.415 764.992,-211.434"/>
</g>
<!-- a3 -->
<g id="node36" class="node"><title>a3</title>
<polygon fill="#aaaacc" stroke="black" points="891.195,-252 837.195,-252 837.195,-216 891.195,-216 891.195,-252"/>
<text text-anchor="middle" x="864.195" y="-230.3" font-family="Times New Roman,serif" font-size="14.00">a3</text>
</g>
<!-- analogIn&#45;&gt;a3 -->
<g id="edge30" class="edge"><title>analogIn&#45;&gt;a3</title>
<path fill="none" stroke="black" d="M752.511,-178.709C774.813,-189.55 804.501,-203.982 827.662,-215.241"/>
<polygon fill="black" stroke="black" points="826.304,-218.472 836.828,-219.696 829.364,-212.177 826.304,-218.472"/>
</g>
<!-- analogIn&#45;&gt;a4 -->
<g id="edge31" class="edge"><title>analogIn&#45;&gt;a4</title>
<path fill="none" stroke="black" d="M687.884,-171.18C663.748,-178.898 631.689,-192.823 612.195,-216 595.076,-236.353 578.456,-309.639 570.34,-349.951"/>
<polygon fill="black" stroke="black" points="566.878,-349.418 568.374,-359.907 573.745,-350.775 566.878,-349.418"/>
</g>
<!-- analogIn&#45;&gt;a5 -->
<g id="edge32" class="edge"><title>analogIn&#45;&gt;a5</title>
<path fill="none" stroke="black" d="M752.556,-167.839C799.41,-175.581 882.487,-192.327 900.195,-216 935.999,-263.866 870.111,-322.55 826.088,-354.181"/>
<polygon fill="black" stroke="black" points="824.05,-351.336 817.882,-359.95 828.075,-357.062 824.05,-351.336"/>
</g>
<!-- shiftIn -->
<g id="node17" class="node"><title>shiftIn</title>
<polygon fill="#88ee88" stroke="black" points="747.195,-108 693.195,-108 693.195,-72 747.195,-72 747.195,-108"/>
<text text-anchor="middle" x="720.195" y="-86.3" font-family="Times New Roman,serif" font-size="14.00">shiftIn</text>
</g>
<!-- shiftIn&#45;&gt;analogIn -->
<g id="edge13" class="edge"><title>shiftIn&#45;&gt;analogIn</title>
<path fill="none" stroke="black" d="M720.195,-108.303C720.195,-116.017 720.195,-125.288 720.195,-133.888"/>
<polygon fill="black" stroke="black" points="716.695,-133.896 720.195,-143.896 723.695,-133.896 716.695,-133.896"/>
</g>
<!-- digital -->
<g id="node18" class="node"><title>digital</title>
<polygon fill="#88ee88" stroke="black" points="1009.19,-36 935.195,-36 935.195,-0 1009.19,-0 1009.19,-36"/>
<text text-anchor="middle" x="972.195" y="-14.3" font-family="Times New Roman,serif" font-size="14.00">Digital I/O</text>
</g>
<!-- digital&#45;&gt;shiftIn -->
<g id="edge12" class="edge"><title>digital&#45;&gt;shiftIn</title>
<path fill="none" stroke="black" d="M934.844,-25.7943C893.208,-33.8839 823.911,-48.8857 756.909,-72.0961"/>
<polygon fill="black" stroke="black" points="755.739,-68.7976 747.473,-75.4258 758.068,-75.3986 755.739,-68.7976"/>
</g>
<!-- p0 -->
<g id="node19" class="node"><title>p0</title>
<polygon fill="#aaaacc" stroke="black" points="819.195,-108 765.195,-108 765.195,-72 819.195,-72 819.195,-108"/>
<text text-anchor="middle" x="792.195" y="-86.3" font-family="Times New Roman,serif" font-size="14.00">p0</text>
</g>
<!-- digital&#45;&gt;p0 -->
<g id="edge33" class="edge"><title>digital&#45;&gt;p0</title>
<path fill="none" stroke="black" d="M935.15,-31.6188C907.917,-41.1214 869.88,-54.8617 828.62,-71.9873"/>
<polygon fill="black" stroke="black" points="827.077,-68.8387 819.206,-75.9307 829.782,-75.2951 827.077,-68.8387"/>
</g>
<!-- p1 -->
<g id="node20" class="node"><title>p1</title>
<polygon fill="#aaaacc" stroke="black" points="891.195,-108 837.195,-108 837.195,-72 891.195,-72 891.195,-108"/>
<text text-anchor="middle" x="864.195" y="-86.3" font-family="Times New Roman,serif" font-size="14.00">p1</text>
</g>
<!-- digital&#45;&gt;p1 -->
<g id="edge34" class="edge"><title>digital&#45;&gt;p1</title>
<path fill="none" stroke="black" d="M945.775,-36.1239C931.785,-45.1917 914.419,-56.4477 899.309,-66.2408"/>
<polygon fill="black" stroke="black" points="897.204,-63.4342 890.716,-71.8102 901.011,-69.3083 897.204,-63.4342"/>
</g>
<!-- p4 -->
<g id="node23" class="node"><title>p4</title>
<polygon fill="#aaaacc" stroke="black" points="963.195,-108 909.195,-108 909.195,-72 963.195,-72 963.195,-108"/>
<text text-anchor="middle" x="936.195" y="-86.3" font-family="Times New Roman,serif" font-size="14.00">p4</text>
</g>
<!-- digital&#45;&gt;p4 -->
<g id="edge35" class="edge"><title>digital&#45;&gt;p4</title>
<path fill="none" stroke="black" d="M963.296,-36.3034C959.198,-44.2716 954.246,-53.9005 949.702,-62.7359"/>
<polygon fill="black" stroke="black" points="946.452,-61.402 944.991,-71.8957 952.677,-64.6035 946.452,-61.402"/>
</g>
<!-- p7 -->
<g id="node26" class="node"><title>p7</title>
<polygon fill="#aaaacc" stroke="black" points="1035.19,-108 981.195,-108 981.195,-72 1035.19,-72 1035.19,-108"/>
<text text-anchor="middle" x="1008.19" y="-86.3" font-family="Times New Roman,serif" font-size="14.00">p7</text>
</g>
<!-- digital&#45;&gt;p7 -->
<g id="edge36" class="edge"><title>digital&#45;&gt;p7</title>
<path fill="none" stroke="black" d="M981.094,-36.3034C985.192,-44.2716 990.144,-53.9005 994.688,-62.7359"/>
<polygon fill="black" stroke="black" points="991.712,-64.6035 999.398,-71.8957 997.937,-61.402 991.712,-64.6035"/>
</g>
<!-- p8 -->
<g id="node27" class="node"><title>p8</title>
<polygon fill="#aaaacc" stroke="black" points="1107.19,-108 1053.19,-108 1053.19,-72 1107.19,-72 1107.19,-108"/>
<text text-anchor="middle" x="1080.19" y="-86.3" font-family="Times New Roman,serif" font-size="14.00">p8</text>
</g>
<!-- digital&#45;&gt;p8 -->
<g id="edge37" class="edge"><title>digital&#45;&gt;p8</title>
<path fill="none" stroke="black" d="M998.615,-36.1239C1012.6,-45.1917 1029.97,-56.4477 1045.08,-66.2408"/>
<polygon fill="black" stroke="black" points="1043.38,-69.3083 1053.67,-71.8102 1047.19,-63.4342 1043.38,-69.3083"/>
</g>
<!-- p12 -->
<g id="node31" class="node"><title>p12</title>
<polygon fill="#aaaacc" stroke="black" points="1179.19,-108 1125.19,-108 1125.19,-72 1179.19,-72 1179.19,-108"/>
<text text-anchor="middle" x="1152.19" y="-86.3" font-family="Times New Roman,serif" font-size="14.00">p12</text>
</g>
<!-- digital&#45;&gt;p12 -->
<g id="edge38" class="edge"><title>digital&#45;&gt;p12</title>
<path fill="none" stroke="black" d="M1009.24,-31.6188C1036.47,-41.1214 1074.51,-54.8617 1115.77,-71.9873"/>
<polygon fill="black" stroke="black" points="1114.61,-75.2951 1125.18,-75.9307 1117.31,-68.8387 1114.61,-75.2951"/>
</g>
<!-- p13 -->
<g id="node32" class="node"><title>p13</title>
<polygon fill="#aaaacc" stroke="black" points="1251.19,-108 1197.19,-108 1197.19,-72 1251.19,-72 1251.19,-108"/>
<text text-anchor="middle" x="1224.19" y="-86.3" font-family="Times New Roman,serif" font-size="14.00">p13</text>
</g>
<!-- digital&#45;&gt;p13 -->
<g id="edge39" class="edge"><title>digital&#45;&gt;p13</title>
<path fill="none" stroke="black" d="M1009.55,-25.7943C1051.18,-33.8839 1120.48,-48.8857 1187.48,-72.0961"/>
<polygon fill="black" stroke="black" points="1186.32,-75.3986 1196.92,-75.4258 1188.65,-68.7976 1186.32,-75.3986"/>
</g>
</g>
</svg>
