<?xml version="1.0" encoding="UTF-8" standalone="no"?>
<!DOCTYPE svg PUBLIC "-//W3C//DTD SVG 1.1//EN"
 "http://www.w3.org/Graphics/SVG/1.1/DTD/svg11.dtd">
<!-- Generated by graphviz version 2.38.0 (20140413.2041)
 -->
<!-- Title: g Pages: 1 -->
<svg width="1859pt" height="756pt"
 viewBox="0.00 0.00 1859.47 756.29" xmlns="http://www.w3.org/2000/svg" xmlns:xlink="http://www.w3.org/1999/xlink">
<g id="graph0" class="graph" transform="scale(1 1) rotate(0) translate(4 752.295)">
<title>g</title>
<polygon fill="white" stroke="none" points="-4,4 -4,-752.295 1855.47,-752.295 1855.47,4 -4,4"/>
<!-- interrupts -->
<g id="node1" class="node"><title>interrupts</title>
<polygon fill="#88ee88" stroke="black" points="1124.93,-519 1055.93,-519 1055.93,-483 1124.93,-483 1124.93,-519"/>
<text text-anchor="middle" x="1090.43" y="-497.3" font-family="Times New Roman,serif" font-size="14.00">interrupts</text>
</g>
<!-- i2c -->
<g id="node2" class="node"><title>i2c</title>
<polygon fill="#88ee88" stroke="black" points="984.584,-436 930.584,-436 930.584,-400 984.584,-400 984.584,-436"/>
<text text-anchor="middle" x="957.584" y="-414.3" font-family="Times New Roman,serif" font-size="14.00">i2c</text>
</g>
<!-- interrupts&#45;&gt;i2c -->
<g id="edge1" class="edge"><title>interrupts&#45;&gt;i2c</title>
<path fill="none" stroke="black" d="M1067.46,-482.948C1052.84,-471.368 1032.93,-456.42 1014.13,-445 1007.77,-441.134 1000.77,-437.379 993.949,-433.959"/>
<polygon fill="black" stroke="black" points="995.359,-430.753 984.835,-429.524 992.296,-437.047 995.359,-430.753"/>
</g>
<!-- pwm -->
<g id="node3" class="node"><title>pwm</title>
<polygon fill="#88ee88" stroke="black" points="838.094,-517 784.094,-517 784.094,-481 838.094,-481 838.094,-517"/>
<text text-anchor="middle" x="811.094" y="-495.3" font-family="Times New Roman,serif" font-size="14.00">pwm</text>
</g>
<!-- i2c&#45;&gt;pwm -->
<g id="edge2" class="edge"><title>i2c&#45;&gt;pwm</title>
<path fill="none" stroke="black" d="M930.332,-430.142C920.989,-434.626 910.454,-439.868 901.039,-445 882.838,-454.921 863.083,-466.798 846.824,-476.883"/>
<polygon fill="black" stroke="black" points="844.812,-474.014 838.183,-482.279 848.519,-479.951 844.812,-474.014"/>
</g>
<!-- analogIn -->
<g id="node4" class="node"><title>analogIn</title>
<polygon fill="#88ee88" stroke="black" points="681.005,-517 617.005,-517 617.005,-481 681.005,-481 681.005,-517"/>
<text text-anchor="middle" x="649.005" y="-495.3" font-family="Times New Roman,serif" font-size="14.00">analogIn</text>
</g>
<!-- pwm&#45;&gt;analogIn -->
<g id="edge3" class="edge"><title>pwm&#45;&gt;analogIn</title>
<path fill="none" stroke="black" d="M784.017,-499C758.924,-499 720.586,-499 691.334,-499"/>
<polygon fill="black" stroke="black" points="691.01,-495.5 681.01,-499 691.01,-502.5 691.01,-495.5"/>
</g>
<!-- digital -->
<g id="node5" class="node"><title>digital</title>
<polygon fill="#88ee88" stroke="black" points="520.667,-517 446.667,-517 446.667,-481 520.667,-481 520.667,-517"/>
<text text-anchor="middle" x="483.667" y="-495.3" font-family="Times New Roman,serif" font-size="14.00">Digital I/O</text>
</g>
<!-- analogIn&#45;&gt;digital -->
<g id="edge4" class="edge"><title>analogIn&#45;&gt;digital</title>
<path fill="none" stroke="black" d="M616.898,-499C592.604,-499 558.468,-499 530.965,-499"/>
<polygon fill="black" stroke="black" points="530.784,-495.5 520.784,-499 530.784,-502.5 530.784,-495.5"/>
</g>
<!-- p2 -->
<g id="node6" class="node"><title>p2</title>
<ellipse fill="none" stroke="black" cx="1228.47" cy="-501" rx="27" ry="18"/>
<text text-anchor="middle" x="1228.47" y="-497.3" font-family="Times New Roman,serif" font-size="14.00">p2</text>
</g>
<!-- p2&#45;&gt;interrupts -->
<g id="edge5" class="edge"><title>p2&#45;&gt;interrupts</title>
<path fill="none" stroke="black" d="M1201.24,-501C1182.57,-501 1157.06,-501 1135.32,-501"/>
<polygon fill="black" stroke="black" points="1135.32,-497.5 1125.32,-501 1135.32,-504.5 1135.32,-497.5"/>
</g>
<!-- p3 -->
<g id="node7" class="node"><title>p3</title>
<ellipse fill="none" stroke="black" cx="1228.47" cy="-674" rx="27" ry="18"/>
<text text-anchor="middle" x="1228.47" y="-670.3" font-family="Times New Roman,serif" font-size="14.00">p3</text>
</g>
<!-- p3&#45;&gt;interrupts -->
<g id="edge6" class="edge"><title>p3&#45;&gt;interrupts</title>
<path fill="none" stroke="black" d="M1214.91,-658.035C1191.47,-628.22 1140.82,-563.815 1112.21,-527.427"/>
<polygon fill="black" stroke="black" points="1114.71,-524.945 1105.78,-519.248 1109.21,-529.272 1114.71,-524.945"/>
</g>
<!-- p3&#45;&gt;pwm -->
<g id="edge9" class="edge"><title>p3&#45;&gt;pwm</title>
<path fill="none" stroke="black" d="M1207.4,-685.552C1151.62,-715.978 992.788,-790.922 901.039,-715 835.16,-660.485 916.36,-594.397 865.039,-526 860.484,-519.929 854.175,-515.117 847.496,-511.343"/>
<polygon fill="black" stroke="black" points="848.807,-508.088 838.289,-506.818 845.72,-514.37 848.807,-508.088"/>
</g>
<!-- a4 -->
<g id="node8" class="node"><title>a4</title>
<ellipse fill="none" stroke="black" cx="1090.43" cy="-388" rx="27" ry="18"/>
<text text-anchor="middle" x="1090.43" y="-384.3" font-family="Times New Roman,serif" font-size="14.00">a4</text>
</g>
<!-- a4&#45;&gt;i2c -->
<g id="edge7" class="edge"><title>a4&#45;&gt;i2c</title>
<path fill="none" stroke="black" d="M1064.51,-393.713C1044.7,-398.254 1016.74,-404.667 994.512,-409.762"/>
<polygon fill="black" stroke="black" points="993.72,-406.353 984.755,-411.999 995.284,-413.176 993.72,-406.353"/>
</g>
<!-- a4&#45;&gt;analogIn -->
<g id="edge15" class="edge"><title>a4&#45;&gt;analogIn</title>
<path fill="none" stroke="black" d="M1063.47,-385.268C1026.81,-382.115 957.971,-378.8 901.039,-391 822.591,-407.811 738.247,-449.537 690.026,-475.927"/>
<polygon fill="black" stroke="black" points="688.222,-472.925 681.164,-480.827 691.609,-479.051 688.222,-472.925"/>
</g>
<!-- a5 -->
<g id="node9" class="node"><title>a5</title>
<ellipse fill="none" stroke="black" cx="1090.43" cy="-334" rx="27" ry="18"/>
<text text-anchor="middle" x="1090.43" y="-330.3" font-family="Times New Roman,serif" font-size="14.00">a5</text>
</g>
<!-- a5&#45;&gt;i2c -->
<g id="edge8" class="edge"><title>a5&#45;&gt;i2c</title>
<path fill="none" stroke="black" d="M1070.4,-346.214C1050.33,-359.101 1018.25,-379.697 993.585,-395.529"/>
<polygon fill="black" stroke="black" points="991.396,-392.776 984.871,-401.124 995.177,-398.666 991.396,-392.776"/>
</g>
<!-- a5&#45;&gt;analogIn -->
<g id="edge16" class="edge"><title>a5&#45;&gt;analogIn</title>
<path fill="none" stroke="black" d="M1063.24,-334.037C1004.94,-335.135 861.365,-343.524 757.149,-397 721.379,-415.355 689.291,-449.402 669.758,-473.087"/>
<polygon fill="black" stroke="black" points="666.938,-471.008 663.387,-480.99 672.388,-475.401 666.938,-471.008"/>
</g>
<!-- p5 -->
<g id="node10" class="node"><title>p5</title>
<ellipse fill="none" stroke="black" cx="957.584" cy="-526" rx="27" ry="18"/>
<text text-anchor="middle" x="957.584" y="-522.3" font-family="Times New Roman,serif" font-size="14.00">p5</text>
</g>
<!-- p5&#45;&gt;pwm -->
<g id="edge10" class="edge"><title>p5&#45;&gt;pwm</title>
<path fill="none" stroke="black" d="M931.416,-521.297C908.432,-517.002 874.188,-510.603 848.273,-505.76"/>
<polygon fill="black" stroke="black" points="848.911,-502.319 838.438,-503.923 847.625,-509.2 848.911,-502.319"/>
</g>
<!-- p6 -->
<g id="node11" class="node"><title>p6</title>
<ellipse fill="none" stroke="black" cx="957.584" cy="-472" rx="27" ry="18"/>
<text text-anchor="middle" x="957.584" y="-468.3" font-family="Times New Roman,serif" font-size="14.00">p6</text>
</g>
<!-- p6&#45;&gt;pwm -->
<g id="edge11" class="edge"><title>p6&#45;&gt;pwm</title>
<path fill="none" stroke="black" d="M931.416,-476.703C908.432,-480.998 874.188,-487.397 848.273,-492.24"/>
<polygon fill="black" stroke="black" points="847.625,-488.8 838.438,-494.077 848.911,-495.681 847.625,-488.8"/>
</g>
<!-- p9 -->
<g id="node12" class="node"><title>p9</title>
<ellipse fill="none" stroke="black" cx="957.584" cy="-688" rx="27" ry="18"/>
<text text-anchor="middle" x="957.584" y="-684.3" font-family="Times New Roman,serif" font-size="14.00">p9</text>
</g>
<!-- p9&#45;&gt;pwm -->
<g id="edge12" class="edge"><title>p9&#45;&gt;pwm</title>
<path fill="none" stroke="black" d="M932.298,-681.325C921.307,-677.151 909.019,-670.679 901.039,-661 861.538,-613.087 904.081,-574.288 865.039,-526 860.312,-520.153 853.985,-515.447 847.353,-511.706"/>
<polygon fill="black" stroke="black" points="848.756,-508.494 838.242,-507.186 845.645,-514.765 848.756,-508.494"/>
</g>
<!-- p10 -->
<g id="node13" class="node"><title>p10</title>
<ellipse fill="none" stroke="black" cx="957.584" cy="-634" rx="27" ry="18"/>
<text text-anchor="middle" x="957.584" y="-630.3" font-family="Times New Roman,serif" font-size="14.00">p10</text>
</g>
<!-- p10&#45;&gt;pwm -->
<g id="edge13" class="edge"><title>p10&#45;&gt;pwm</title>
<path fill="none" stroke="black" d="M932.672,-626.632C921.897,-622.326 909.682,-615.944 901.039,-607 873.663,-578.67 892.143,-554.59 865.039,-526 860.079,-520.768 853.882,-516.38 847.493,-512.766"/>
<polygon fill="black" stroke="black" points="848.619,-509.413 838.117,-508.016 845.456,-515.658 848.619,-509.413"/>
</g>
<!-- p11 -->
<g id="node14" class="node"><title>p11</title>
<ellipse fill="none" stroke="black" cx="957.584" cy="-580" rx="27" ry="18"/>
<text text-anchor="middle" x="957.584" y="-576.3" font-family="Times New Roman,serif" font-size="14.00">p11</text>
</g>
<!-- p11&#45;&gt;pwm -->
<g id="edge14" class="edge"><title>p11&#45;&gt;pwm</title>
<path fill="none" stroke="black" d="M934.443,-570.421C924.056,-565.631 911.656,-559.48 901.039,-553 883.968,-542.581 882.01,-536.582 865.039,-526 859.466,-522.525 853.39,-519.108 847.407,-515.937"/>
<polygon fill="black" stroke="black" points="848.66,-512.645 838.167,-511.18 845.456,-518.869 848.66,-512.645"/>
</g>
<!-- a0 -->
<g id="node15" class="node"><title>a0</title>
<ellipse fill="none" stroke="black" cx="811.094" cy="-288" rx="27" ry="18"/>
<text text-anchor="middle" x="811.094" y="-284.3" font-family="Times New Roman,serif" font-size="14.00">a0</text>
</g>
<!-- a0&#45;&gt;analogIn -->
<g id="edge17" class="edge"><title>a0&#45;&gt;analogIn</title>
<path fill="none" stroke="black" d="M788.321,-298.042C778.039,-303.519 766.091,-311.019 757.149,-320 711.873,-365.47 677.948,-433.736 661.348,-471.468"/>
<polygon fill="black" stroke="black" points="658.064,-470.245 657.317,-480.813 664.491,-473.017 658.064,-470.245"/>
</g>
<!-- a1 -->
<g id="node16" class="node"><title>a1</title>
<ellipse fill="none" stroke="black" cx="811.094" cy="-661" rx="27" ry="18"/>
<text text-anchor="middle" x="811.094" y="-657.3" font-family="Times New Roman,serif" font-size="14.00">a1</text>
</g>
<!-- a1&#45;&gt;analogIn -->
<g id="edge18" class="edge"><title>a1&#45;&gt;analogIn</title>
<path fill="none" stroke="black" d="M787.436,-652.049C777.546,-647.509 766.172,-641.383 757.149,-634 718.743,-602.575 685.132,-555.209 666.221,-525.745"/>
<polygon fill="black" stroke="black" points="669.133,-523.801 660.835,-517.213 663.214,-527.537 669.133,-523.801"/>
</g>
<!-- a2 -->
<g id="node17" class="node"><title>a2</title>
<ellipse fill="none" stroke="black" cx="811.094" cy="-607" rx="27" ry="18"/>
<text text-anchor="middle" x="811.094" y="-603.3" font-family="Times New Roman,serif" font-size="14.00">a2</text>
</g>
<!-- a2&#45;&gt;analogIn -->
<g id="edge19" class="edge"><title>a2&#45;&gt;analogIn</title>
<path fill="none" stroke="black" d="M788.498,-597.056C778.708,-592.28 767.118,-586.243 757.149,-580 729.756,-562.847 700.618,-540.524 679.654,-523.658"/>
<polygon fill="black" stroke="black" points="681.732,-520.837 671.761,-517.254 677.322,-526.273 681.732,-520.837"/>
</g>
<!-- a3 -->
<g id="node18" class="node"><title>a3</title>
<ellipse fill="none" stroke="black" cx="811.094" cy="-553" rx="27" ry="18"/>
<text text-anchor="middle" x="811.094" y="-549.3" font-family="Times New Roman,serif" font-size="14.00">a3</text>
</g>
<!-- a3&#45;&gt;analogIn -->
<g id="edge20" class="edge"><title>a3&#45;&gt;analogIn</title>
<path fill="none" stroke="black" d="M786.472,-545.032C761.389,-536.571 721.265,-523.037 691.003,-512.829"/>
<polygon fill="black" stroke="black" points="691.748,-509.387 681.154,-509.507 689.511,-516.02 691.748,-509.387"/>
</g>
<!-- TailLight -->
<g id="node19" class="node"><title>TailLight</title>
<ellipse fill="#ffaaaa" stroke="black" cx="42.8962" cy="-72" rx="42.7926" ry="18"/>
<text text-anchor="middle" x="42.8962" y="-68.3" font-family="Times New Roman,serif" font-size="14.00">TailLight</text>
</g>
<!-- HeadLight -->
<g id="node20" class="node"><title>HeadLight</title>
<ellipse fill="#ffaaaa" stroke="black" cx="180.937" cy="-126" rx="48.1917" ry="18"/>
<text text-anchor="middle" x="180.937" y="-122.3" font-family="Times New Roman,serif" font-size="14.00">HeadLight</text>
</g>
<!-- HeadLight&#45;&gt;TailLight -->
<g id="edge31" class="edge"><title>HeadLight&#45;&gt;TailLight</title>
<path fill="none" stroke="black" d="M147.352,-113.066C128.437,-105.558 104.451,-96.0365 84.3374,-88.0527"/>
<polygon fill="black" stroke="black" points="85.3997,-84.7088 74.8138,-84.2724 82.8171,-91.215 85.3997,-84.7088"/>
</g>
<!-- BrakeSensor -->
<g id="node21" class="node"><title>BrakeSensor</title>
<ellipse fill="#ffaaaa" stroke="black" cx="333.277" cy="-153" rx="57.3905" ry="18"/>
<text text-anchor="middle" x="333.277" y="-149.3" font-family="Times New Roman,serif" font-size="14.00">BrakeSensor</text>
</g>
<!-- BrakeSensor&#45;&gt;HeadLight -->
<g id="edge30" class="edge"><title>BrakeSensor&#45;&gt;HeadLight</title>
<path fill="none" stroke="black" d="M283.05,-144.159C267.595,-141.384 250.473,-138.309 234.779,-135.49"/>
<polygon fill="black" stroke="black" points="235.165,-132.004 224.704,-133.681 233.928,-138.893 235.165,-132.004"/>
</g>
<!-- TurnSignals -->
<g id="node22" class="node"><title>TurnSignals</title>
<ellipse fill="#ffaaaa" stroke="black" cx="483.667" cy="-126" rx="53.8905" ry="18"/>
<text text-anchor="middle" x="483.667" y="-122.3" font-family="Times New Roman,serif" font-size="14.00">TurnSignals</text>
</g>
<!-- TurnSignals&#45;&gt;BrakeSensor -->
<g id="edge29" class="edge"><title>TurnSignals&#45;&gt;BrakeSensor</title>
<path fill="none" stroke="black" d="M435.715,-134.543C422.255,-136.992 407.406,-139.694 393.318,-142.257"/>
<polygon fill="black" stroke="black" points="392.437,-138.86 383.225,-144.094 393.69,-145.747 392.437,-138.86"/>
</g>
<!-- Horn -->
<g id="node23" class="node"><title>Horn</title>
<ellipse fill="#ffaaaa" stroke="black" cx="649.005" cy="-180" rx="29.4969" ry="18"/>
<text text-anchor="middle" x="649.005" y="-176.3" font-family="Times New Roman,serif" font-size="14.00">Horn</text>
</g>
<!-- Horn&#45;&gt;TurnSignals -->
<g id="edge28" class="edge"><title>Horn&#45;&gt;TurnSignals</title>
<path fill="none" stroke="black" d="M622.842,-171.681C598.802,-163.733 561.951,-151.55 532.35,-141.764"/>
<polygon fill="black" stroke="black" points="533.212,-138.363 522.619,-138.547 531.015,-145.009 533.212,-138.363"/>
</g>
<!-- Modes -->
<g id="node24" class="node"><title>Modes</title>
<ellipse fill="#ffaaaa" stroke="black" cx="811.094" cy="-180" rx="36.2938" ry="18"/>
<text text-anchor="middle" x="811.094" y="-176.3" font-family="Times New Roman,serif" font-size="14.00">Modes</text>
</g>
<!-- Modes&#45;&gt;Horn -->
<g id="edge27" class="edge"><title>Modes&#45;&gt;Horn</title>
<path fill="none" stroke="black" d="M774.565,-180C749.143,-180 714.937,-180 688.803,-180"/>
<polygon fill="black" stroke="black" points="688.505,-176.5 678.505,-180 688.505,-183.5 688.505,-176.5"/>
</g>
<!-- Police -->
<g id="node25" class="node"><title>Police</title>
<ellipse fill="#ffaaaa" stroke="black" cx="957.584" cy="-180" rx="33.2948" ry="18"/>
<text text-anchor="middle" x="957.584" y="-176.3" font-family="Times New Roman,serif" font-size="14.00">Police</text>
</g>
<!-- Police&#45;&gt;Modes -->
<g id="edge26" class="edge"><title>Police&#45;&gt;Modes</title>
<path fill="none" stroke="black" d="M924.158,-180C904.637,-180 879.477,-180 857.943,-180"/>
<polygon fill="black" stroke="black" points="857.704,-176.5 847.704,-180 857.704,-183.5 857.704,-176.5"/>
</g>
<!-- Display -->
<g id="node26" class="node"><title>Display</title>
<ellipse fill="#ffaaaa" stroke="black" cx="1090.43" cy="-280" rx="38.1938" ry="18"/>
<text text-anchor="middle" x="1090.43" y="-276.3" font-family="Times New Roman,serif" font-size="14.00">Display</text>
</g>
<!-- Display&#45;&gt;Police -->
<g id="edge25" class="edge"><title>Display&#45;&gt;Police</title>
<path fill="none" stroke="black" d="M1075.13,-263.355C1060.85,-247.446 1037.69,-223.508 1014.13,-207 1007.91,-202.643 1000.88,-198.631 993.969,-195.105"/>
<polygon fill="black" stroke="black" points="995.223,-191.824 984.698,-190.614 992.171,-198.124 995.223,-191.824"/>
</g>
<!-- Speed -->
<g id="node27" class="node"><title>Speed</title>
<ellipse fill="#ffaaaa" stroke="black" cx="1228.47" cy="-280" rx="33.5952" ry="18"/>
<text text-anchor="middle" x="1228.47" y="-276.3" font-family="Times New Roman,serif" font-size="14.00">Speed</text>
</g>
<!-- Speed&#45;&gt;Display -->
<g id="edge24" class="edge"><title>Speed&#45;&gt;Display</title>
<path fill="none" stroke="black" d="M1194.53,-280C1177.89,-280 1157.39,-280 1139.06,-280"/>
<polygon fill="black" stroke="black" points="1138.86,-276.5 1128.86,-280 1138.86,-283.5 1138.86,-276.5"/>
</g>
<!-- Luminosity -->
<g id="node28" class="node"><title>Luminosity</title>
<ellipse fill="#ffaaaa" stroke="black" cx="1385.36" cy="-307" rx="51.1914" ry="18"/>
<text text-anchor="middle" x="1385.36" y="-303.3" font-family="Times New Roman,serif" font-size="14.00">Luminosity</text>
</g>
<!-- Luminosity&#45;&gt;Speed -->
<g id="edge23" class="edge"><title>Luminosity&#45;&gt;Speed</title>
<path fill="none" stroke="black" d="M1339.14,-299.118C1317.5,-295.346 1291.77,-290.861 1270.68,-287.184"/>
<polygon fill="black" stroke="black" points="1271.19,-283.72 1260.73,-285.45 1269.98,-290.616 1271.19,-283.72"/>
</g>
<!-- Beep -->
<g id="node29" class="node"><title>Beep</title>
<ellipse fill="#ffaaaa" stroke="black" cx="1535.1" cy="-334" rx="29.4969" ry="18"/>
<text text-anchor="middle" x="1535.1" y="-330.3" font-family="Times New Roman,serif" font-size="14.00">Beep</text>
</g>
<!-- Beep&#45;&gt;Luminosity -->
<g id="edge22" class="edge"><title>Beep&#45;&gt;Luminosity</title>
<path fill="none" stroke="black" d="M1506.65,-328.985C1488.34,-325.639 1463.64,-321.124 1441.38,-317.055"/>
<polygon fill="black" stroke="black" points="1441.82,-313.578 1431.35,-315.224 1440.56,-320.464 1441.82,-313.578"/>
</g>
<!-- StatusLed -->
<g id="node30" class="node"><title>StatusLed</title>
<ellipse fill="#ffaaaa" stroke="black" cx="1673.14" cy="-388" rx="47.3916" ry="18"/>
<text text-anchor="middle" x="1673.14" y="-384.3" font-family="Times New Roman,serif" font-size="14.00">StatusLed</text>
</g>
<!-- StatusLed&#45;&gt;Beep -->
<g id="edge21" class="edge"><title>StatusLed&#45;&gt;Beep</title>
<path fill="none" stroke="black" d="M1639.55,-375.066C1618.42,-366.678 1590.96,-355.777 1569.64,-347.314"/>
<polygon fill="black" stroke="black" points="1570.91,-344.052 1560.32,-343.616 1568.32,-350.558 1570.91,-344.052"/>
</g>
<!-- tailLeft -->
<g id="node31" class="node"><title>tailLeft</title>
<ellipse fill="none" stroke="black" cx="180.937" cy="-72" rx="53.8905" ry="18"/>
<text text-anchor="middle" x="180.937" y="-68.3" font-family="Times New Roman,serif" font-size="14.00">TailRedLeft</text>
</g>
<!-- tailLeft&#45;&gt;TailLight -->
<g id="edge32" class="edge"><title>tailLeft&#45;&gt;TailLight</title>
<path fill="none" stroke="black" d="M126.951,-72C116.873,-72 106.332,-72 96.2735,-72"/>
<polygon fill="black" stroke="black" points="96.0059,-68.5001 86.0058,-72 96.0058,-75.5001 96.0059,-68.5001"/>
</g>
<!-- tailRight -->
<g id="node32" class="node"><title>tailRight</title>
<ellipse fill="none" stroke="black" cx="180.937" cy="-18" rx="59.2899" ry="18"/>
<text text-anchor="middle" x="180.937" y="-14.3" font-family="Times New Roman,serif" font-size="14.00">TailRedRight</text>
</g>
<!-- tailRight&#45;&gt;TailLight -->
<g id="edge33" class="edge"><title>tailRight&#45;&gt;TailLight</title>
<path fill="none" stroke="black" d="M144.194,-32.1879C125.741,-39.5125 103.163,-48.4747 84.1038,-56.04"/>
<polygon fill="black" stroke="black" points="82.7852,-52.7977 74.7819,-59.7402 85.3678,-59.3039 82.7852,-52.7977"/>
</g>
<!-- head -->
<g id="node33" class="node"><title>head</title>
<ellipse fill="none" stroke="black" cx="333.277" cy="-99" rx="48.1917" ry="18"/>
<text text-anchor="middle" x="333.277" y="-95.3" font-family="Times New Roman,serif" font-size="14.00">HeadLight</text>
</g>
<!-- head&#45;&gt;HeadLight -->
<g id="edge34" class="edge"><title>head&#45;&gt;HeadLight</title>
<path fill="none" stroke="black" d="M289.598,-106.665C272.537,-109.729 252.712,-113.289 234.758,-116.514"/>
<polygon fill="black" stroke="black" points="233.947,-113.103 224.723,-118.316 235.184,-119.993 233.947,-113.103"/>
</g>
<!-- bs -->
<g id="node34" class="node"><title>bs</title>
<ellipse fill="none" stroke="black" cx="483.667" cy="-180" rx="57.3905" ry="18"/>
<text text-anchor="middle" x="483.667" y="-176.3" font-family="Times New Roman,serif" font-size="14.00">BrakeSensor</text>
</g>
<!-- bs&#45;&gt;BrakeSensor -->
<g id="edge35" class="edge"><title>bs&#45;&gt;BrakeSensor</title>
<path fill="none" stroke="black" d="M433.667,-171.084C420.751,-168.734 406.679,-166.174 393.295,-163.739"/>
<polygon fill="black" stroke="black" points="393.69,-160.253 383.225,-161.906 392.437,-167.14 393.69,-160.253"/>
</g>
<!-- ls -->
<g id="node35" class="node"><title>ls</title>
<ellipse fill="none" stroke="black" cx="649.005" cy="-126" rx="47.3916" ry="18"/>
<text text-anchor="middle" x="649.005" y="-122.3" font-family="Times New Roman,serif" font-size="14.00">LeftSignal</text>
</g>
<!-- ls&#45;&gt;TurnSignals -->
<g id="edge36" class="edge"><title>ls&#45;&gt;TurnSignals</title>
<path fill="none" stroke="black" d="M601.199,-126C584.65,-126 565.75,-126 548.057,-126"/>
<polygon fill="black" stroke="black" points="547.806,-122.5 537.806,-126 547.806,-129.5 547.806,-122.5"/>
</g>
<!-- rs -->
<g id="node36" class="node"><title>rs</title>
<ellipse fill="none" stroke="black" cx="649.005" cy="-72" rx="51.9908" ry="18"/>
<text text-anchor="middle" x="649.005" y="-68.3" font-family="Times New Roman,serif" font-size="14.00">RightSignal</text>
</g>
<!-- rs&#45;&gt;TurnSignals -->
<g id="edge37" class="edge"><title>rs&#45;&gt;TurnSignals</title>
<path fill="none" stroke="black" d="M610.532,-84.3887C587.25,-92.0856 557.112,-102.05 532.164,-110.297"/>
<polygon fill="black" stroke="black" points="530.927,-107.02 522.531,-113.482 533.124,-113.666 530.927,-107.02"/>
</g>
<!-- lb -->
<g id="node37" class="node"><title>lb</title>
<ellipse fill="none" stroke="black" cx="649.005" cy="-18" rx="67.6881" ry="18"/>
<text text-anchor="middle" x="649.005" y="-14.3" font-family="Times New Roman,serif" font-size="14.00">LeftTurnButton</text>
</g>
<!-- lb&#45;&gt;TurnSignals -->
<g id="edge38" class="edge"><title>lb&#45;&gt;TurnSignals</title>
<path fill="none" stroke="black" d="M604.334,-31.7432C594.972,-35.4577 585.351,-39.8907 576.862,-45 550.826,-60.67 525.184,-84.0214 507.578,-101.631"/>
<polygon fill="black" stroke="black" points="505.059,-99.2014 500.547,-108.788 510.052,-104.107 505.059,-99.2014"/>
</g>
<!-- rb -->
<g id="node38" class="node"><title>rb</title>
<ellipse fill="none" stroke="black" cx="649.005" cy="-234" rx="72.2875" ry="18"/>
<text text-anchor="middle" x="649.005" y="-230.3" font-family="Times New Roman,serif" font-size="14.00">RightTurnButton</text>
</g>
<!-- rb&#45;&gt;TurnSignals -->
<g id="edge39" class="edge"><title>rb&#45;&gt;TurnSignals</title>
<path fill="none" stroke="black" d="M600.25,-220.599C591.956,-216.994 583.784,-212.516 576.862,-207 554.302,-189.026 562.635,-171.918 540.862,-153 537.223,-149.839 533.15,-146.96 528.904,-144.362"/>
<polygon fill="black" stroke="black" points="530.468,-141.227 520.028,-139.421 527.063,-147.343 530.468,-141.227"/>
</g>
<!-- hb -->
<g id="node39" class="node"><title>hb</title>
<ellipse fill="none" stroke="black" cx="811.094" cy="-126" rx="53.8905" ry="18"/>
<text text-anchor="middle" x="811.094" y="-122.3" font-family="Times New Roman,serif" font-size="14.00">HornButton</text>
</g>
<!-- hb&#45;&gt;Horn -->
<g id="edge40" class="edge"><title>hb&#45;&gt;Horn</title>
<path fill="none" stroke="black" d="M772.56,-138.661C746.126,-147.577 710.978,-159.433 685.103,-168.161"/>
<polygon fill="black" stroke="black" points="683.687,-164.945 675.33,-171.458 685.924,-171.578 683.687,-164.945"/>
</g>
<!-- sp -->
<g id="node40" class="node"><title>sp</title>
<ellipse fill="none" stroke="black" cx="811.094" cy="-234" rx="29.4969" ry="18"/>
<text text-anchor="middle" x="811.094" y="-230.3" font-family="Times New Roman,serif" font-size="14.00">Siren</text>
</g>
<!-- sp&#45;&gt;Horn -->
<g id="edge41" class="edge"><title>sp&#45;&gt;Horn</title>
<path fill="none" stroke="black" d="M785.08,-225.563C758.138,-216.475 715.075,-201.949 684.831,-191.747"/>
<polygon fill="black" stroke="black" points="685.701,-188.347 675.107,-188.467 683.464,-194.98 685.701,-188.347"/>
</g>
<!-- mb -->
<g id="node41" class="node"><title>mb</title>
<ellipse fill="none" stroke="black" cx="957.584" cy="-234" rx="56.59" ry="18"/>
<text text-anchor="middle" x="957.584" y="-230.3" font-family="Times New Roman,serif" font-size="14.00">ModeButton</text>
</g>
<!-- mb&#45;&gt;Modes -->
<g id="edge42" class="edge"><title>mb&#45;&gt;Modes</title>
<path fill="none" stroke="black" d="M920.123,-220.374C898.809,-212.408 871.935,-202.364 850.323,-194.287"/>
<polygon fill="black" stroke="black" points="851.395,-190.952 840.803,-190.729 848.944,-197.509 851.395,-190.952"/>
</g>
<!-- bl -->
<g id="node42" class="node"><title>bl</title>
<ellipse fill="none" stroke="black" cx="1090.43" cy="-180" rx="40.0939" ry="18"/>
<text text-anchor="middle" x="1090.43" y="-176.3" font-family="Times New Roman,serif" font-size="14.00">TailBlue</text>
</g>
<!-- bl&#45;&gt;Police -->
<g id="edge43" class="edge"><title>bl&#45;&gt;Police</title>
<path fill="none" stroke="black" d="M1049.81,-180C1034.54,-180 1017.02,-180 1001.45,-180"/>
<polygon fill="black" stroke="black" points="1001.03,-176.5 991.031,-180 1001.03,-183.5 1001.03,-176.5"/>
</g>
<!-- dispsda -->
<g id="node43" class="node"><title>dispsda</title>
<ellipse fill="none" stroke="black" cx="1228.47" cy="-388" rx="61.99" ry="18"/>
<text text-anchor="middle" x="1228.47" y="-384.3" font-family="Times New Roman,serif" font-size="14.00">Display(SDA)</text>
</g>
<!-- dispsda&#45;&gt;a4 -->
<g id="edge51" class="edge"><title>dispsda&#45;&gt;a4</title>
<path fill="none" stroke="black" d="M1166.61,-388C1153.26,-388 1139.53,-388 1127.53,-388"/>
<polygon fill="black" stroke="black" points="1127.47,-384.5 1117.47,-388 1127.47,-391.5 1127.47,-384.5"/>
</g>
<!-- dispsda&#45;&gt;Display -->
<g id="edge44" class="edge"><title>dispsda&#45;&gt;Display</title>
<path fill="none" stroke="black" d="M1187.96,-374.354C1180.45,-370.711 1172.99,-366.282 1166.72,-361 1144.67,-342.406 1150.97,-327.538 1130.72,-307 1128.4,-304.642 1125.84,-302.362 1123.18,-300.193"/>
<polygon fill="black" stroke="black" points="1125.11,-297.267 1115.01,-294.052 1120.9,-302.861 1125.11,-297.267"/>
</g>
<!-- dispscl -->
<g id="node44" class="node"><title>dispscl</title>
<ellipse fill="none" stroke="black" cx="1228.47" cy="-334" rx="61.1893" ry="18"/>
<text text-anchor="middle" x="1228.47" y="-330.3" font-family="Times New Roman,serif" font-size="14.00">Display(SCL)</text>
</g>
<!-- dispscl&#45;&gt;a5 -->
<g id="edge52" class="edge"><title>dispscl&#45;&gt;a5</title>
<path fill="none" stroke="black" d="M1167,-334C1153.61,-334 1139.82,-334 1127.75,-334"/>
<polygon fill="black" stroke="black" points="1127.64,-330.5 1117.64,-334 1127.64,-337.5 1127.64,-330.5"/>
</g>
<!-- dispscl&#45;&gt;Display -->
<g id="edge45" class="edge"><title>dispscl&#45;&gt;Display</title>
<path fill="none" stroke="black" d="M1191.37,-319.671C1172.38,-312.133 1149.1,-302.891 1129.78,-295.225"/>
<polygon fill="black" stroke="black" points="1130.96,-291.926 1120.37,-291.49 1128.37,-298.432 1130.96,-291.926"/>
</g>
<!-- speed -->
<g id="node45" class="node"><title>speed</title>
<ellipse fill="none" stroke="black" cx="1385.36" cy="-253" rx="59.2899" ry="18"/>
<text text-anchor="middle" x="1385.36" y="-249.3" font-family="Times New Roman,serif" font-size="14.00">SpeedSensor</text>
</g>
<!-- speed&#45;&gt;Speed -->
<g id="edge46" class="edge"><title>speed&#45;&gt;Speed</title>
<path fill="none" stroke="black" d="M1333.64,-261.841C1313.3,-265.387 1290.15,-269.422 1270.85,-272.786"/>
<polygon fill="black" stroke="black" points="1270.11,-269.363 1260.86,-274.528 1271.31,-276.259 1270.11,-269.363"/>
</g>
<!-- lum -->
<g id="node46" class="node"><title>lum</title>
<ellipse fill="none" stroke="black" cx="1535.1" cy="-280" rx="54.6905" ry="18"/>
<text text-anchor="middle" x="1535.1" y="-276.3" font-family="Times New Roman,serif" font-size="14.00">LightSensor</text>
</g>
<!-- lum&#45;&gt;Luminosity -->
<g id="edge47" class="edge"><title>lum&#45;&gt;Luminosity</title>
<path fill="none" stroke="black" d="M1486.94,-288.617C1472.47,-291.263 1456.41,-294.198 1441.45,-296.932"/>
<polygon fill="black" stroke="black" points="1440.51,-293.546 1431.3,-298.786 1441.77,-300.432 1440.51,-293.546"/>
</g>
<!-- bz -->
<g id="node47" class="node"><title>bz</title>
<ellipse fill="none" stroke="black" cx="1673.14" cy="-280" rx="47.3916" ry="18"/>
<text text-anchor="middle" x="1673.14" y="-276.3" font-family="Times New Roman,serif" font-size="14.00">BuzzerPin</text>
</g>
<!-- bz&#45;&gt;Beep -->
<g id="edge48" class="edge"><title>bz&#45;&gt;Beep</title>
<path fill="none" stroke="black" d="M1639.55,-292.934C1618.42,-301.322 1590.96,-312.223 1569.64,-320.686"/>
<polygon fill="black" stroke="black" points="1568.32,-317.442 1560.32,-324.384 1570.91,-323.948 1568.32,-317.442"/>
</g>
<!-- st -->
<g id="node48" class="node"><title>st</title>
<ellipse fill="none" stroke="black" cx="1804.03" cy="-361" rx="47.3916" ry="18"/>
<text text-anchor="middle" x="1804.03" y="-357.3" font-family="Times New Roman,serif" font-size="14.00">StatusLed</text>
</g>
<!-- st&#45;&gt;StatusLed -->
<g id="edge49" class="edge"><title>st&#45;&gt;StatusLed</title>
<path fill="none" stroke="black" d="M1762.25,-369.543C1750.49,-372.005 1737.52,-374.723 1725.22,-377.299"/>
<polygon fill="black" stroke="black" points="1724.17,-373.944 1715.1,-379.42 1725.6,-380.795 1724.17,-373.944"/>
</g>
<!-- p13 -->
<g id="node49" class="node"><title>p13</title>
<ellipse fill="none" stroke="black" cx="1673.14" cy="-334" rx="27" ry="18"/>
<text text-anchor="middle" x="1673.14" y="-330.3" font-family="Times New Roman,serif" font-size="14.00">p13</text>
</g>
<!-- st&#45;&gt;p13 -->
<g id="edge50" class="edge"><title>st&#45;&gt;p13</title>
<path fill="none" stroke="black" d="M1762.25,-352.457C1745.31,-348.908 1725.83,-344.829 1709.51,-341.41"/>
<polygon fill="black" stroke="black" points="1709.8,-337.895 1699.29,-339.27 1708.36,-344.746 1709.8,-337.895"/>
</g>
</g>
</svg>
